<?xml version="1.0" encoding="UTF-8" standalone="no"?>
<svg
   xmlns:dc="http://purl.org/dc/elements/1.1/"
   xmlns:cc="http://creativecommons.org/ns#"
   xmlns:rdf="http://www.w3.org/1999/02/22-rdf-syntax-ns#"
   xmlns:svg="http://www.w3.org/2000/svg"
   xmlns="http://www.w3.org/2000/svg"
   xmlns:sodipodi="http://sodipodi.sourceforge.net/DTD/sodipodi-0.dtd"
   xmlns:inkscape="http://www.inkscape.org/namespaces/inkscape"
   inkscape:version="1.0 (1.0+r73+1)"
   sodipodi:docname="hotel-overlook-logo-white.svg"
   viewBox="0 0 700 266.66666"
   height="266.66666"
   width="700"
   xml:space="preserve"
   id="svg2"
   version="1.1"><metadata
     id="metadata8"><rdf:RDF><cc:Work
         rdf:about=""><dc:format>image/svg+xml</dc:format><dc:type
           rdf:resource="http://purl.org/dc/dcmitype/StillImage" /><dc:title></dc:title></cc:Work></rdf:RDF></metadata><defs
     id="defs6" /><sodipodi:namedview
     inkscape:current-layer="g10"
     inkscape:window-maximized="1"
     inkscape:window-y="30"
     inkscape:window-x="0"
     inkscape:cy="133.33333"
     inkscape:cx="350"
     inkscape:zoom="1.6071429"
     showgrid="false"
     id="namedview4"
     inkscape:window-height="1017"
     inkscape:window-width="1920"
     inkscape:pageshadow="2"
     inkscape:pageopacity="0"
     guidetolerance="10"
     gridtolerance="10"
     objecttolerance="10"
     borderopacity="1"
     bordercolor="#666666"
     pagecolor="#ffffff" /><g
     transform="matrix(1.3333333,0,0,-1.3333333,0,266.66667)"
     inkscape:label="hotel-overlook-logo"
     inkscape:groupmode="layer"
     id="g10"><text
       id="text14"
       style="font-variant:normal;font-weight:300;font-stretch:normal;font-size:60px;font-family:'Open Sans Light';-inkscape-font-specification:OpenSans-Light;writing-mode:lr-tb;fill:#ffffff;fill-opacity:1;fill-rule:nonzero;stroke:none;"
       transform="matrix(1,0,0,-1,12.561,85.7075)"><tspan
         id="tspan12"
         sodipodi:role="line"
         y="0"
         x="0 43.139999 88.980003 120.42 153.53999 184.32001 199.92 245.75999 280.38 313.5 349.14001 379.92001 425.76001 471.60001">HOTEL OVERLOOK</tspan></text><g
       transform="translate(267.707,40.1602)"
       id="g16"><path
         id="path18"
         style="fill:#ff0000;fill-opacity:1;fill-rule:nonzero;stroke:none"
         d="M 0,0 10.671,6.523 21.341,0 18.434,12.164 27.936,20.296 15.469,21.29 10.671,32.84 5.873,21.29 -6.595,20.296 2.907,12.164 Z" /></g><g
       transform="translate(306.4014,40.1602)"
       id="g20"><path
         id="path22"
         style="fill:#ff0000;fill-opacity:1;fill-rule:nonzero;stroke:none"
         d="M 0,0 10.67,6.523 21.341,0 18.434,12.164 27.935,20.296 15.468,21.29 10.67,32.84 5.872,21.29 -6.595,20.296 2.907,12.164 Z" /></g><g
       transform="translate(345.0947,40.1602)"
       id="g24"><path
         id="path26"
         style="fill:#ff0000;fill-opacity:1;fill-rule:nonzero;stroke:none"
         d="M 0,0 10.67,6.523 21.341,0 18.434,12.164 27.936,20.296 15.468,21.29 10.67,32.84 5.872,21.29 -6.595,20.296 2.907,12.164 Z" /></g><g
       transform="translate(383.7881,40.1602)"
       id="g28"><path
         id="path30"
         style="fill:#ff0000;fill-opacity:1;fill-rule:nonzero;stroke:none"
         d="M 0,0 10.671,6.523 21.341,0 18.434,12.164 27.936,20.296 15.469,21.29 10.671,32.84 5.873,21.29 -6.595,20.296 2.907,12.164 Z" /></g><g
       transform="translate(229.0137,40.1602)"
       id="g32"><path
         id="path34"
         style="fill:#ff0000;fill-opacity:1;fill-rule:nonzero;stroke:none"
         d="M 0,0 10.67,6.523 21.341,0 18.434,12.164 27.935,20.296 15.468,21.29 10.67,32.84 5.872,21.29 -6.595,20.296 2.907,12.164 Z" /></g><g
       transform="translate(519,160.5)"
       id="g36"><path
         id="path38"
         style="fill:none;stroke:#acacac;stroke-width:1;stroke-linecap:butt;stroke-linejoin:miter;stroke-miterlimit:10;stroke-dasharray:none;stroke-opacity:1"
         d="M 0,0 H -343.5" /></g><g
       transform="translate(222.5,55.5)"
       id="g40"><path
         id="path42"
         style="fill:none;stroke:#acacac;stroke-width:1;stroke-linecap:butt;stroke-linejoin:miter;stroke-miterlimit:10;stroke-dasharray:none;stroke-opacity:1"
         d="M 0,0 H -47" /></g><g
       transform="translate(518.5,55.5)"
       id="g44"><path
         id="path46"
         style="fill:none;stroke:#acacac;stroke-width:1;stroke-linecap:butt;stroke-linejoin:miter;stroke-miterlimit:10;stroke-dasharray:none;stroke-opacity:1"
         d="M 0,0 H -107" /></g></g></svg>
